<svg xmlns="http://www.w3.org/2000/svg" viewBox="0 0 900 1200" role="img" aria-label="Fondo Consumo inmediato">
  <rect width="900" height="1200" fill="#ff9b7a"/>
  <defs>
    <g id="consumo-logo">
      <rect width="320" height="273" rx="12" fill="#df7600"/>
      <g fill="none" stroke="#fff" stroke-width="11" stroke-linecap="round">
        <path d="M72 82a112 112 0 0 1 176 0"/>
        <path d="M252 190a112 112 0 0 1-184 0"/>
        <circle cx="160" cy="136" r="91" stroke-width="6" opacity=".95"/>
      </g>
      <g fill="#fff" font-family="Inter, Arial Black, Arial, sans-serif" text-anchor="middle">
        <text x="160" y="72" font-size="22" font-weight="900" letter-spacing="1.5" transform="rotate(-16 160 72)">PRECIO REDUCIDO</text>
        <text x="160" y="143" font-size="58" font-weight="900" letter-spacing="-3">Consumo</text>
        <text x="160" y="194" font-size="45" font-weight="900" letter-spacing="-2">inmediato</text>
        <text x="160" y="238" font-size="20" font-weight="900" letter-spacing="1.3" transform="rotate(17 160 238)">PRÓXIMO A VENCER</text>
      </g>
      <g fill="#fff">
        <path d="M148 91h24l-12 12z"/>
        <path d="M132 101c8-13 22-20 41-20-10 6-15 12-16 20 1 8 6 15 16 20-19 0-33-7-41-20z" opacity=".95"/>
      </g>
    </g>
  </defs>
  <g>
    <rect x="18" y="18" width="864" height="273" rx="10" fill="#fff"/>
    <use href="#consumo-logo" x="18" y="18"/>
  </g>
  <g>
    <rect x="18" y="317" width="864" height="273" rx="10" fill="#fff"/>
    <use href="#consumo-logo" x="18" y="317"/>
  </g>
  <g>
    <rect x="18" y="616" width="864" height="273" rx="10" fill="#fff"/>
    <use href="#consumo-logo" x="18" y="616"/>
  </g>
  <g>
    <rect x="18" y="915" width="864" height="267" rx="10" fill="#fff"/>
    <use href="#consumo-logo" x="18" y="915" width="320" height="267"/>
  </g>
</svg>
